# xmcd
#
# Track frame offsets:
#	150
#	13351
#	27383
#	41706
#	59672
#	75878
#	86417
#	99864
#	118047
#	135311
#	148473
#	164113
#	183379
#	207091
#	220225
#	232932
#	243714
#	252987
#	263536
#	276753
#
# Disc length: 3846 seconds
#
# Revision: 1
# Processed by: cddbd v1.5.2PL0 Copyright (c) Steve Scherf et al.
# Submitted via: audiograbber 1.83.01
#
DISCID=200f0414
DTITLE=Various Artist - Country Top Hits of the 70s
DYEAR=2007
DGENRE=Country
TTITLE0=Charlie Rich - Behind Closed Doors
TTITLE1=George Jones - The Grand Tour
TTITLE2=George Jones - Marie Laveau
TTITLE3=Billy Swan - I Can Help
TTITLE4=The Charlie Daniels Band - The Devil Went Down To Georgia
TTITLE5=Willie Nelson - Blue Eyes Crying In The Rain
TTITLE6=Mickey Gilley - Don't The Girls All Get Prettier Around Closing Time
TTITLE7=Johnny Cash - One Piece At A Time
TTITLE8=Ray Price - For The Good Times
TTITLE9=Lynn Anderson - Rose Garden
TTITLE10=Kris Kristofferson - Why Me
TTITLE11=Marty Robbins - El Paso City
TTITLE12=David Allan Coe - You Never Even Called Me By My Name
TTITLE13=Tammy Wynette - Kids Say The Darndest Things
TTITLE14=Gary Stewart - She's Actin' Single (I'm Drinkin' Doubles)
TTITLE15=Ronnie Milsap - Daydreams About Night Things
TTITLE16=Charley Pride - Kiss An Angel Good Mornin'
TTITLE17=Jerry Reed - When You're Hot, You're Hot
TTITLE18=Waylon Jennings - Are You Sure Hank Done It This Way
TTITLE19=Johnny Paycheck - Take This Job And Shove It
EXTD=
EXTT0=
EXTT1=
EXTT2=
EXTT3=
EXTT4=
EXTT5=
EXTT6=
EXTT7=
EXTT8=
EXTT9=
EXTT10=
EXTT11=
EXTT12=
EXTT13=
EXTT14=
EXTT15=
EXTT16=
EXTT17=
EXTT18=
EXTT19=
PLAYORDER=
